<svg xmlns="http://www.w3.org/2000/svg" viewBox="0 0 100 100">
  <rect width="100" height="100" rx="15" fill="#6c5ce7"/>
  <text x="50" y="38" text-anchor="middle" font-family="Arial Black, sans-serif" font-size="22" font-weight="bold" fill="#fff">B I N G O</text>
  <g fill="none" stroke="#fff" stroke-width="2">
    <rect x="15" y="45" width="14" height="14" rx="2"/>
    <rect x="31" y="45" width="14" height="14" rx="2"/>
    <rect x="47" y="45" width="14" height="14" rx="2"/>
    <rect x="63" y="45" width="14" height="14" rx="2"/>
    <rect x="15" y="61" width="14" height="14" rx="2"/>
    <rect x="31" y="61" width="14" height="14" rx="2"/>
    <rect x="47" y="61" width="14" height="14" rx="2"/>
    <rect x="63" y="61" width="14" height="14" rx="2"/>
    <rect x="15" y="77" width="14" height="14" rx="2"/>
    <rect x="31" y="77" width="14" height="14" rx="2"/>
    <rect x="47" y="77" width="14" height="14" rx="2"/>
    <rect x="63" y="77" width="14" height="14" rx="2"/>
  </g>
  <g font-family="Arial, sans-serif" font-size="9" fill="#fff" text-anchor="middle">
    <text x="22" y="56">7</text>
    <text x="38" y="56">3</text>
    <text x="54" y="56">15</text>
    <text x="70" y="56">21</text>
    <text x="22" y="72">12</text>
    <text x="38" y="72">5</text>
    <text x="54" y="72">19</text>
    <text x="70" y="72">8</text>
    <text x="22" y="88">25</text>
    <text x="38" y="88">1</text>
    <text x="54" y="88">14</text>
    <text x="70" y="88">11</text>
  </g>
</svg>
